<svg xmlns="http://www.w3.org/2000/svg" version="1.1" >
  <polygon fill="#1f77b4" stroke="#1f77b4" transform="translate(15, 15)" points="9.18454765366783e-16,-15 0.7821723252011547,-4.938441702975689 4.635254915624212,-14.265847744427303 2.269952498697734,-4.455032620941839 8.816778784387097,-12.135254915624213 3.5355339059327378,-3.5355339059327373 12.135254915624213,-8.816778784387097 4.455032620941839,-2.2699524986977337 14.265847744427303,-4.635254915624211 4.938441702975689,-0.7821723252011543 15,0 4.938441702975689,0.7821723252011543 14.265847744427303,4.635254915624211 4.455032620941839,2.2699524986977337 12.135254915624213,8.816778784387097 3.5355339059327378,3.5355339059327373 8.816778784387097,12.135254915624213 2.269952498697734,4.455032620941839 4.635254915624212,14.265847744427303 0.7821723252011547,4.938441702975689 9.18454765366783e-16,15 -0.7821723252011541,4.938441702975689 -4.63525491562421,14.265847744427305 -2.2699524986977333,4.455032620941839 -8.816778784387095,12.135254915624213 -3.5355339059327373,3.5355339059327378 -12.13525491562421,8.816778784387099 -4.455032620941839,2.269952498697734 -14.265847744427303,4.635254915624213 -4.938441702975688,0.7821723252011549 -15,1.836909530733566e-15 -4.938441702975689,-0.7821723252011537 -14.265847744427305,-4.635254915624209 -4.455032620941839,-2.2699524986977333 -12.135254915624213,-8.816778784387095 -3.5355339059327386,-3.5355339059327373 -8.816778784387099,-12.13525491562421 -2.2699524986977346,-4.455032620941839 -4.6352549156242135,-14.265847744427303 -0.7821723252011552,-4.938441702975688"></polygon>
</svg>
