<?xml version="1.0" encoding="UTF-8" standalone="no"?>
<svg width="40px" height="40px" viewBox="0 0 40 40" version="1.1" xmlns="http://www.w3.org/2000/svg" xmlns:xlink="http://www.w3.org/1999/xlink" xmlns:sketch="http://www.bohemiancoding.com/sketch/ns">
    <title>Slice 1</title>
    <description>Created with Sketch (http://www.bohemiancoding.com/sketch)</description>
    <defs></defs>
    <g id="Page-1" stroke="none" stroke-width="1" fill="none" fill-rule="evenodd" sketch:type="MSPage">
        <path d="M20,0 L21.5643447,10.1231166 L26.1803399,0.978869674 L24.539905,11.0899348 L31.755705,3.81966011 L27.0710678,12.9289322 L36.1803399,8.24429495 L28.9100652,15.460095 L39.0211303,13.8196601 L29.8768834,18.4356553 L40,20 L29.8768834,21.5643447 L39.0211303,26.1803399 L28.9100652,24.539905 L36.1803399,31.755705 L27.0710678,27.0710678 L31.755705,36.1803399 L24.539905,28.9100652 L26.1803399,39.0211303 L21.5643447,29.8768834 L20,40 L18.4356553,29.8768834 L13.8196601,39.0211303 L15.460095,28.9100652 L8.24429495,36.1803399 L12.9289322,27.0710678 L3.81966011,31.755705 L11.0899348,24.539905 L0.978869674,26.1803399 L10.1231166,21.5643447 L0,20 L10.1231166,18.4356553 L0.978869674,13.8196601 L11.0899348,15.460095 L3.81966011,8.24429495 L12.9289322,12.9289322 L8.24429495,3.81966011 L15.460095,11.0899348 L13.8196601,0.978869674 L18.4356553,10.1231166 L20,0 Z" id="Shape" fill="#D62728" sketch:type="MSShapeGroup"></path>
    </g>
</svg>